<svg id="Camada_1" xmlns="http://www.w3.org/2000/svg" version="1.1" viewBox="0 0 69.8 88.7" width="69.8" height="88.7">
  <!-- Generator: Adobe Illustrator 29.0.1, SVG Export Plug-In . SVG Version: 2.1.0 Build 192)  -->
  <defs>
    <style>
      .st0 {
        fill: none;
        stroke: #000;
        stroke-miterlimit: 10;
        stroke-width: .2px;
      }
    </style>
  </defs>
  <path class="st0" d="M58.8,3c1.7,7.5,3.4,15.2,3.4,22.9s-2.6,18-7.2,26.4h0l-15.5,33.1c-.2.5,0,1.1.5,1.4s1.1,0,1.5-.4l19.2-30.5h0c3-4.4,5.2-9.1,6.2-14.3,2.7-13-1.5-27.1-5.9-39.2-.2-.5-.8-.8-1.3-.7-.5.2-.9.7-.8,1.3" />
  <path class="st0" d="M43.2,7.7c2.2,4.8,4.5,10,5.7,15.3.9,3.9,1.2,7.9,0,11.7-1.6,5.7-6.1,10-10.8,13.3L2.6,73.8c-.5.3-.6,1-.3,1.5.3.5,1,.6,1.5.3,4.7-2.8,9.3-5.6,14-8.4,4.2-2.6,8.4-5.2,12.6-7.9,3.8-2.5,7.6-5,11.3-7.7,18.1-13,15.7-28.8,3.3-45.1-.3-.5-1-.6-1.4-.3-.5.3-.7.9-.4,1.4" />
  <path class="st0" d="M49.9,4.8c1.1,3.5,2.2,7,3.2,10.5.8,2.8,1.5,5.7,2,8.5.7,4.3.9,8.8-.4,13-1.6,5.1-5.1,9.2-8.9,12.9l-31.3,30.5c-.4.4-.4,1,0,1.5.4.4,1,.5,1.5.2,2.2-1.7,4.4-3.3,6.6-5,4.1-3.2,8.2-6.4,12.2-9.7,4.9-4,9.7-8.1,14.5-12.3,5.1-4.4,9.1-9.7,10.6-16.4,1.2-5.3.7-10.7-.7-16-1.6-6.3-4.4-12.6-7.3-18.5-.3-.5-.8-.7-1.4-.5s-.8.8-.6,1.3" />
</svg>